<svg width="506" height="488" viewBox="0 0 506 488" fill="none" xmlns="http://www.w3.org/2000/svg">
<path d="M100.854 48.1568C83.4294 63.137 62.1231 85.9287 41.1834 111.176C40.8735 111.55 40.7037 112.025 40.7086 112.51C40.7283 114.431 43.1339 115.271 44.349 113.788C94.1366 53.0082 133.842 21.3904 161.568 20.3709C162.603 20.3315 163.509 19.5632 163.575 18.5264C163.651 17.3419 162.694 16.379 161.541 16.4184C145.122 16.9774 124.704 27.6554 100.854 48.1568Z" fill="#00A580"/>
<path d="M123.636 31.6547C123.636 31.6547 111.645 20.329 132.359 2.01707e-07C132.359 2.01707e-07 145.801 22.5454 123.636 31.6547Z" fill="#00CCA1"/>
<path d="M112.415 41.5812C112.415 41.5812 123.044 28.9627 144.47 48.5382C144.47 48.5382 122.731 63.2327 112.415 41.5812Z" fill="#00CCA1"/>
<path d="M149.449 20.5752C149.449 20.5752 155.266 5.13204 181.986 16.4331C181.986 16.4331 166.384 37.5452 149.449 20.5752Z" fill="#00CCA1"/>
<path d="M89.2272 60.8591C89.2272 60.8591 74.1171 54.2617 86.738 28.116C86.738 28.116 107.011 44.7806 89.2272 60.8591Z" fill="#00CCA1"/>
<path d="M79.3262 72.7066C79.3262 72.7066 87.613 58.438 112.1 74.0068C112.1 74.0068 93.2286 92.2451 79.3262 72.7066Z" fill="#00CCA1"/>
<path d="M64.1621 87.5782C64.1621 87.5782 48.9289 81.2689 61.0555 54.8892C61.0555 54.8892 81.6361 71.1647 64.1621 87.5782Z" fill="#00CCA1"/>
<path d="M448.922 294.972C452.543 317.68 454.08 348.857 453.753 381.671C453.748 382.159 453.571 382.629 453.251 382.996C451.997 384.449 449.618 383.533 449.65 381.615C450.914 303.02 441.041 253.198 420.544 234.475C419.779 233.775 419.585 232.601 420.202 231.768C420.908 230.815 422.261 230.702 423.114 231.478C435.285 242.532 443.966 263.893 448.922 294.972Z" fill="#00A580"/>
<path d="M442.197 267.636C442.197 267.636 458.66 266.757 455.986 237.841C455.986 237.841 431.167 246.339 442.197 267.636Z" fill="#00CCA1"/>
<path d="M444.347 282.474C444.347 282.474 444.386 265.969 415.4 267.033C415.4 267.033 422.494 292.314 444.347 282.474Z" fill="#00CCA1"/>
<path d="M429.657 242.478C429.657 242.478 435.192 226.931 407.507 218.258C407.507 218.258 405.781 244.46 429.657 242.478Z" fill="#00CCA1"/>
<path d="M449.588 312.188C449.588 312.188 465.377 316.936 472.631 288.818C472.631 288.818 446.405 288.411 449.588 312.188Z" fill="#00CCA1"/>
<path d="M449.492 327.633C449.492 327.633 452.383 311.385 423.648 307.413C423.648 307.413 426.27 333.544 449.492 327.633Z" fill="#00CCA1"/>
<path d="M451.46 348.797C451.46 348.797 467.156 353.843 474.941 325.867C474.941 325.867 448.725 324.966 451.46 348.797Z" fill="#00CCA1"/>
<path d="M412.741 149.438C412.741 149.438 403.156 102.473 419.582 102.034C436.01 101.599 412.741 149.438 412.741 149.438Z" fill="#00CCA1"/>
<path d="M409.233 168.991C408.722 168.779 408.399 168.235 408.49 167.663L415.272 124.373C415.378 123.7 416.007 123.242 416.676 123.346C417.348 123.449 417.805 124.082 417.702 124.752L410.921 168.043C410.815 168.715 410.185 169.173 409.514 169.067C409.415 169.055 409.322 169.028 409.233 168.991Z" fill="#00A580"/>
<path d="M414.005 147.314C414.005 147.314 436.652 105.08 449.556 115.268C462.46 125.456 414.005 147.314 414.005 147.314Z" fill="#00CCA1"/>
<path d="M412.616 149.06C412.446 148.991 412.291 148.883 412.163 148.735C411.715 148.226 411.765 147.447 412.276 146.997L431.971 129.67C432.483 129.221 433.258 129.271 433.708 129.783C434.156 130.293 434.106 131.071 433.595 131.522L413.9 148.849C413.533 149.169 413.034 149.235 412.616 149.06Z" fill="#00A580"/>
<path d="M45.5914 299.958C45.5914 299.958 43.5055 252.068 27.4631 255.636C11.4207 259.207 45.5914 299.958 45.5914 299.958Z" fill="#00CCA1"/>
<path d="M53.7327 318.076C54.1779 317.746 54.3575 317.14 54.1336 316.606L37.0606 276.258C36.795 275.632 36.0742 275.339 35.4494 275.605C34.8222 275.869 34.532 276.593 34.7977 277.218L51.8707 317.566C52.1364 318.192 52.8571 318.485 53.4818 318.219C53.5728 318.182 53.6565 318.133 53.7327 318.076Z" fill="#00A580"/>
<path d="M43.8496 298.208C43.8496 298.208 11.6393 262.738 1.5913 275.758C-8.45672 288.776 43.8496 298.208 43.8496 298.208Z" fill="#00CCA1"/>
<path d="M45.6229 299.565C45.7705 299.456 45.896 299.313 45.9845 299.139C46.2969 298.533 46.0583 297.792 45.4557 297.481L22.1472 285.459C21.5445 285.148 20.8017 285.385 20.4918 285.991C20.1818 286.594 20.418 287.338 21.0231 287.648L44.3291 299.671C44.7571 299.892 45.2589 299.833 45.6229 299.565Z" fill="#00A580"/>
<path d="M345.534 32.5065C347.832 34.0087 350.911 33.3586 352.409 31.0561C353.907 28.7511 353.26 25.6653 350.963 24.1631C348.666 22.6609 345.586 23.3086 344.088 25.6136C342.587 27.9162 343.237 31.0019 345.534 32.5065Z" fill="#FF6129"/>
<path d="M427.396 426.72C429.694 428.223 432.771 427.573 434.271 425.27C435.769 422.965 435.122 419.879 432.825 418.375C430.527 416.872 427.448 417.52 425.95 419.825C424.449 422.133 425.096 425.218 427.396 426.72Z" fill="#FF6129"/>
<path d="M51.5166 365.524C53.814 367.026 56.8912 366.378 58.3916 364.073C59.8896 361.768 59.2426 358.682 56.9452 357.178C54.6478 355.676 51.5682 356.323 50.0702 358.628C48.5723 360.933 49.2192 364.021 51.5166 365.524Z" fill="#FF6129"/>
<path d="M219.49 23.9096C221.787 25.4118 224.867 24.7642 226.365 22.4592C227.863 20.1541 227.216 17.0684 224.918 15.5662C222.621 14.064 219.541 14.7117 218.043 17.0167C216.545 19.3192 217.192 22.4074 219.49 23.9096Z" fill="#008661"/>
<path d="M76.6134 455.55C78.9108 457.053 81.9904 456.405 83.4884 454.1C84.9864 451.795 84.3394 448.709 82.042 447.207C79.7446 445.705 76.6675 446.353 75.167 448.658C73.6666 450.963 74.316 454.048 76.6134 455.55Z" fill="#008661"/>
<path d="M101.919 410.656C104.217 412.158 107.294 411.511 108.794 409.206C110.292 406.901 109.645 403.815 107.348 402.31C105.05 400.808 101.971 401.456 100.473 403.761C98.9724 406.066 99.6193 409.154 101.919 410.656Z" fill="#008661"/>
<path d="M497.627 395.437C499.924 396.939 503.002 396.289 504.502 393.987C506 391.682 505.353 388.596 503.056 387.094C500.758 385.592 497.679 386.239 496.181 388.544C494.68 390.849 495.33 393.935 497.627 395.437Z" fill="#008661"/>
<path d="M149.227 199.597C149.227 202.347 147.003 204.579 144.258 204.579C141.516 204.579 139.29 202.347 139.29 199.597C139.29 196.846 141.513 194.615 144.258 194.615C147.003 194.617 149.227 196.846 149.227 199.597Z" fill="#FF6129"/>
<path d="M45.6771 189.953C45.6771 192.704 43.4535 194.935 40.7084 194.935C37.9633 194.935 35.7397 192.704 35.7397 189.953C35.7397 187.202 37.9633 184.971 40.7084 184.971C43.4535 184.971 45.6771 187.2 45.6771 189.953Z" fill="#008661"/>
<path d="M365.19 208.371C365.421 211.112 367.824 213.148 370.557 212.917C373.29 212.685 375.319 210.277 375.09 207.533C374.859 204.793 372.456 202.756 369.723 202.987C366.988 203.221 364.959 205.63 365.19 208.371Z" fill="#FF6129"/>
<path d="M451.329 187.753C451.561 190.494 453.964 192.531 456.697 192.299C459.429 192.068 461.459 189.659 461.23 186.916C460.999 184.175 458.596 182.138 455.863 182.37C453.128 182.601 451.098 185.012 451.329 187.753Z" fill="#008661"/>
<path d="M172.991 155.916C173.222 158.657 175.625 160.694 178.358 160.462C181.091 160.231 183.12 157.822 182.891 155.079C182.66 152.338 180.257 150.302 177.524 150.533C174.789 150.765 172.759 153.175 172.991 155.916Z" fill="#008661"/>
<path d="M379.164 404.633C379.164 404.633 433.106 303.766 406.467 289.002C380.138 274.411 342.742 397.233 342.742 397.233C342.742 397.233 362.784 413.218 379.164 404.633Z" fill="#E9981A"/>
<path d="M405.458 315.845C405.458 315.845 403.746 308.311 397.393 306.676C390.08 304.795 386.188 310.084 386.188 310.084L405.458 315.845Z" fill="#D27D21"/>
<path d="M399.039 331.887C399.039 331.887 397.327 324.353 390.973 322.718C383.66 320.837 379.769 326.126 379.769 326.126L399.039 331.887Z" fill="#D27D21"/>
<path d="M392.616 347.928C392.616 347.928 390.904 340.395 384.551 338.759C377.236 336.878 373.347 342.168 373.347 342.168L392.616 347.928Z" fill="#D27D21"/>
<path d="M386.196 363.969C386.196 363.969 384.484 356.436 378.13 354.801C370.818 352.919 366.926 358.209 366.926 358.209L386.196 363.969Z" fill="#D27D21"/>
<path d="M379.776 380.011C379.776 380.011 378.065 372.478 371.711 370.843C364.398 368.961 360.507 374.251 360.507 374.251L379.776 380.011Z" fill="#D27D21"/>
<path d="M373.354 396.053C373.354 396.053 371.642 388.52 365.288 386.885C357.973 385.003 354.084 390.293 354.084 390.293L373.354 396.053Z" fill="#D27D21"/>
<path d="M349.504 409.14C349.504 409.14 399.874 306.438 372.731 292.618C345.908 278.962 312.844 403.022 312.844 403.022C312.844 403.022 333.437 418.296 349.504 409.14Z" fill="#E9981A"/>
<path d="M372.667 319.485C372.667 319.485 370.692 312.016 364.284 310.604C356.91 308.979 353.206 314.407 353.206 314.407L372.667 319.485Z" fill="#D27D21"/>
<path d="M366.813 335.74C366.813 335.74 364.838 328.271 358.43 326.86C351.056 325.237 347.352 330.662 347.352 330.662L366.813 335.74Z" fill="#D27D21"/>
<path d="M360.959 351.999C360.959 351.999 358.983 344.529 352.576 343.118C345.201 341.493 341.497 346.921 341.497 346.921L360.959 351.999Z" fill="#D27D21"/>
<path d="M355.105 368.255C355.105 368.255 353.13 360.785 346.722 359.374C339.346 357.751 335.644 363.177 335.644 363.177L355.105 368.255Z" fill="#D27D21"/>
<path d="M349.25 384.513C349.25 384.513 347.275 377.044 340.868 375.633C333.491 374.01 329.789 379.435 329.789 379.435L349.25 384.513Z" fill="#D27D21"/>
<path d="M343.396 400.769C343.396 400.769 341.421 393.3 335.014 391.889C327.639 390.266 323.935 395.691 323.935 395.691L343.396 400.769Z" fill="#D27D21"/>
<path d="M378.894 123.376C383.085 102.021 334.829 74.548 271.111 62.0129C207.392 49.4779 152.341 56.6277 148.15 77.9824C143.959 99.3372 192.215 126.81 255.933 139.345C319.652 151.88 374.703 144.731 378.894 123.376Z" fill="#FF6129"/>
<path d="M203.619 263.915C203.09 264.248 201.565 265.159 199.716 266.255C196.193 268.356 191.463 271.138 190.241 271.889C186.214 274.372 181.464 277.135 176.269 280.004C175.925 280.196 175.573 280.386 175.224 280.578C172.272 282.191 169.185 283.836 166.012 285.483C164.728 286.156 163.425 286.825 162.114 287.49C145.388 295.974 126.767 304.175 112.562 308.073C111.037 308.492 109.579 308.836 108.189 309.12C108.172 309.12 108.152 309.127 108.14 309.132C78.4629 315.222 78.0866 292.723 102.015 275.32C103.626 274.145 105.38 272.919 107.262 271.646C107.81 271.271 108.381 270.89 108.954 270.501C109.323 270.254 109.704 270.001 110.085 269.744C111.131 269.055 112.206 268.353 113.315 267.632C113.531 267.491 113.745 267.356 113.962 267.213C114.196 267.058 114.429 266.912 114.656 266.765C115.184 266.425 115.713 266.08 116.254 265.735C117.292 265.075 118.35 264.406 119.427 263.728C123.948 260.884 128.75 257.946 133.645 255.023C135.391 253.976 137.15 252.93 138.909 251.89C140.466 250.974 142.025 250.056 143.575 249.145C144.099 248.837 144.637 248.522 145.198 248.201C145.346 248.115 145.493 248.029 145.641 247.943C147.948 246.613 150.511 245.16 153.205 243.653C153.315 243.591 153.426 243.53 153.537 243.468C161.396 239.065 170.3 234.216 177.015 230.532C179.696 229.059 182.033 227.781 183.816 226.796C187.653 234.017 191.852 241.683 195.615 248.916C198.078 253.646 201.115 259.207 203.619 263.915Z" fill="#FFB890"/>
<path d="M176.267 280.004C175.923 280.196 175.571 280.385 175.222 280.578C172.27 282.191 169.183 283.836 166.01 285.483C158.483 274.246 148.295 254.35 145.196 248.199C145.343 248.113 145.491 248.026 145.639 247.94C147.946 246.61 150.509 245.158 153.202 243.65L176.267 280.004Z" fill="#3B1034"/>
<path d="M110.804 306.172C110.474 306.379 110.15 306.568 109.83 306.753C101.814 311.267 92.3313 310.629 84.9644 306.049C84.9545 306.041 84.9349 306.031 84.925 306.024C81.5675 303.936 78.6478 301.015 76.5226 297.398C73.78 292.751 71.2046 286.742 70.265 279.696C67.2543 257.119 79.6562 200.724 84.529 179.895C84.8168 178.681 85.294 177.541 85.936 176.529C87.7685 173.643 90.9022 171.707 94.4565 171.471C100.409 171.072 105.577 175.512 106.089 181.462C107.542 198.385 108.536 230.754 112.467 248.004C115.229 260.133 118.114 272.855 118.587 283.506C118.584 283.518 118.589 283.53 118.587 283.543C118.616 284.242 118.631 284.944 118.643 285.621C118.643 285.626 118.643 285.626 118.641 285.633C118.65 286.237 118.646 286.833 118.633 287.421C118.621 288.426 118.574 289.404 118.5 290.352C117.94 297.496 115.723 303.138 110.804 306.172Z" fill="#FFB890"/>
<path d="M119.423 263.726C119.268 273.089 116.712 289.51 116.712 289.51L116.25 265.733C117.288 265.073 118.345 264.403 119.423 263.726Z" fill="#3B1034"/>
<path d="M102.2 184.094C105.085 183.442 107.665 181.927 110.034 178.799C113.16 174.677 117.244 167.942 118.131 163.428C119.465 156.648 122.303 136.491 118.911 131.943C115.519 127.392 111.729 144.611 110.883 148.127C110.036 151.644 108.167 153.735 108.167 153.735C108.167 153.735 113.817 113.609 110.72 110.306C107.621 107.004 102.126 129.552 100.805 135.135C100.805 135.135 103.388 104.687 100.753 103.224C95.4625 100.288 91.6205 134.026 91.6205 134.026C91.6205 134.026 92.4912 108.321 88.2727 108.366C83.8009 108.412 82.9375 135.947 82.9375 135.947C82.9375 135.947 81.0632 119.145 77.4302 117.522C73.7972 115.896 75.0123 151.521 75.8584 156.963C76.7046 162.408 78.2936 179.898 85.0677 183.821C89.2862 186.266 97.7354 185.106 102.2 184.094Z" fill="#FFB890"/>
<path d="M95.696 179.021C85.2126 169.848 93.802 155.552 93.8905 155.407C94.2398 154.838 94.9802 154.66 95.5484 155.01C96.1191 155.362 96.2937 156.104 95.9469 156.67C95.632 157.185 88.3438 169.377 97.2825 177.198C97.2874 177.203 97.2899 177.211 97.2948 177.208C97.7966 177.647 97.8482 178.41 97.4104 178.912C96.9701 179.422 96.2027 179.444 95.696 179.021Z" fill="#FF8E69"/>
<path d="M80.6108 143.463C80.1361 143.047 80.0598 142.328 80.4484 141.818C80.8543 141.288 81.612 141.19 82.1408 141.596C91.9502 149.139 102.896 145.206 103.004 145.167C103.629 144.936 104.325 145.253 104.554 145.879C104.785 146.504 104.468 147.199 103.843 147.43C103.346 147.615 91.5246 151.858 80.6698 143.512C80.6501 143.495 80.6305 143.478 80.6108 143.463Z" fill="#FF8E69"/>
<path d="M222.202 264.26C204.596 279.159 174.749 290.783 174.749 290.783C174.233 290.125 173.721 289.453 173.212 288.771C172.331 287.601 171.461 286.399 170.605 285.18C157.92 267.203 147.717 245.347 147.717 245.347C175.618 225.887 195.406 195.299 195.406 195.299C211.515 210.242 222.202 264.26 222.202 264.26Z" fill="#F6B74C"/>
<path d="M178.407 247.958L173.212 288.771C172.332 287.601 171.461 286.399 170.605 285.18L175.389 247.576C175.495 246.739 176.257 246.152 177.094 246.258C177.92 246.364 178.511 247.128 178.407 247.958Z" fill="#E9981A"/>
<path d="M323.33 488C324.466 442.01 324.277 380.023 324.277 380.023L325.839 350.878L326.852 327.941C331.705 277.287 336.128 250.809 339.84 235.277C341.677 227.586 338.885 219.534 332.724 214.586C310.254 196.547 294.718 187.537 294.718 187.537L256.275 186.433C256.275 186.433 227.966 191.157 197.02 195.178C190.802 195.986 180.877 246.381 176.147 272.298C176.078 272.709 175.999 273.123 175.923 273.534C175.805 274.184 175.692 274.834 175.566 275.49C175.532 275.684 175.497 275.888 175.463 276.09C175.387 276.502 175.315 276.915 175.239 277.327C175.182 277.642 175.128 277.962 175.064 278.285C161.907 351.297 143.496 468.297 139.993 487.421C139.959 487.616 139.925 487.806 139.89 488H323.33Z" fill="#F6B74C"/>
<path d="M279.842 338.829C276.428 338.829 272.43 337.681 268.055 334.305C252.935 322.639 265.223 285.875 265.755 284.316C266.006 283.582 266.761 283.151 267.518 283.304L304.075 290.817C304.783 290.963 305.295 291.586 305.302 292.31C305.502 313.198 297.948 331.621 286.933 337.112C285.034 338.06 282.631 338.829 279.842 338.829ZM268.254 286.599C266.239 293.142 257.994 322.659 269.929 331.867C275.303 336.014 280.562 336.851 285.561 334.362C295.353 329.481 302.127 312.818 302.23 293.585L268.254 286.599Z" fill="#E9981A"/>
<path d="M303.283 303.682C303.19 303.682 303.094 303.675 302.998 303.655L264.176 296.395C263.342 296.24 262.791 295.435 262.948 294.6C263.103 293.765 263.908 293.214 264.741 293.369L303.563 300.629C304.397 300.784 304.948 301.589 304.793 302.424C304.656 303.165 304.009 303.682 303.283 303.682Z" fill="#E9981A"/>
<path d="M274.703 409.886C274.649 409.856 274.598 409.824 274.546 409.787C274.403 409.684 260.248 399.326 246.544 382.816C233.845 367.516 218.924 343.636 219.969 316.764C219.999 315.993 220.648 315.392 221.418 315.421C222.191 315.451 222.788 316.101 222.759 316.872C221.748 342.838 236.28 366.065 248.648 380.979C262.127 397.233 276.044 407.423 276.184 407.524C276.809 407.977 276.947 408.851 276.494 409.477C276.081 410.05 275.311 410.213 274.703 409.886Z" fill="#E9981A"/>
<path d="M277.473 234.664C278.226 234.908 279.045 234.526 279.338 233.78C279.643 233.004 279.262 232.128 278.487 231.822C247.236 219.502 244.483 198.185 244.461 197.971C244.368 197.143 243.622 196.547 242.796 196.639C241.97 196.73 241.374 197.471 241.463 198.298C241.564 199.244 244.328 221.602 277.382 234.632C277.412 234.642 277.444 234.654 277.473 234.664Z" fill="#E9981A"/>
<path d="M261.753 238.872C262.491 239.111 263.303 238.747 263.608 238.015C263.927 237.245 263.563 236.363 262.793 236.043C245.669 228.911 243.571 219.107 243.551 219.009C243.391 218.191 242.599 217.657 241.782 217.817C240.966 217.977 240.432 218.77 240.592 219.588C240.683 220.053 243.034 231.081 261.635 238.828C261.674 238.845 261.714 238.86 261.753 238.872Z" fill="#E9981A"/>
<path d="M264.311 479.837C264.264 479.837 264.215 479.834 264.166 479.829C261.947 479.598 209.611 473.919 191.744 451.359C191.264 450.753 191.365 449.876 191.97 449.396C192.573 448.918 193.451 449.017 193.93 449.623C211.07 471.262 263.922 476.995 264.456 477.051C265.223 477.133 265.779 477.817 265.701 478.586C265.624 479.302 265.017 479.837 264.311 479.837Z" fill="#E9981A"/>
<path d="M274.231 465.861C274.169 465.861 274.108 465.859 274.046 465.849C273.872 465.827 256.496 463.475 236.592 455.501C218.144 448.11 193.66 434.236 181.787 410.112C181.447 409.42 181.73 408.583 182.421 408.24C183.115 407.898 183.949 408.184 184.291 408.876C195.763 432.185 219.595 445.67 237.569 452.878C257.158 460.734 274.243 463.054 274.413 463.076C275.178 463.177 275.714 463.879 275.613 464.645C275.52 465.349 274.92 465.861 274.231 465.861Z" fill="#E9981A"/>
<path d="M258.12 261.187C256.587 261.187 255.038 261.046 253.468 260.766C247.636 259.722 243.103 256.601 239.999 251.489C228.042 231.808 241.229 188.618 241.797 186.788C242.099 185.813 243.133 185.271 244.107 185.572C245.081 185.875 245.624 186.909 245.322 187.884C245.189 188.315 232.059 231.31 243.155 249.571C245.72 253.794 249.309 256.266 254.12 257.128C260.105 258.202 265.804 256.865 271.065 253.164C291.853 238.533 299.935 192.157 300.016 191.691C300.189 190.687 301.143 190.007 302.144 190.179C303.15 190.349 303.824 191.302 303.654 192.309C303.32 194.277 295.235 240.666 273.193 256.185C268.463 259.512 263.408 261.187 258.12 261.187Z" fill="white"/>
<path d="M264.259 206.285C287.615 210.459 295.99 193.066 295.99 193.066C292.869 182.927 293.304 172.801 293.572 163.758C293.705 159.185 294.015 156.173 294.015 156.173L250.824 175.758L250.394 192.457L250.291 196.54C250.291 196.54 250.31 203.793 264.259 206.285Z" fill="#FFB890"/>
<path d="M250.394 192.46C272.758 189.352 288.021 171.335 293.661 161.357C293.794 156.784 294.015 156.175 294.015 156.175L250.825 175.761L250.394 192.46Z" fill="#3B1034"/>
<path d="M227.186 111.276C227.186 111.276 223.598 100.268 212.775 102.58C201.952 104.893 202.663 149.769 229.331 146.137L227.186 111.276Z" fill="#FF8E69"/>
<path d="M313.188 101.29C313.188 101.29 313.119 103.051 312.812 106.048C311.926 114.734 309.031 133.834 299.881 150.683C292.182 164.863 280.048 177.457 260.973 180.905C238.282 185.005 223.733 170.335 218.432 149.1C217.947 147.179 217.517 145.233 217.128 143.308C216.685 141.059 216.292 138.818 215.947 136.602C215.669 134.784 215.436 132.994 215.222 131.241C214.681 126.665 214.344 122.306 214.152 118.403C214.152 118.396 214.159 118.391 214.152 118.378C213.889 112.682 213.926 107.949 214.098 104.932C214.196 103.196 214.294 101.448 214.435 99.692C215.689 84.2513 220.043 68.5273 250.396 60.7897C257.795 58.9058 264.817 58.2458 271.304 58.7014C283.831 59.5756 294.364 64.6166 301.768 73.0413C308.052 80.1854 312.086 89.7577 313.188 101.29Z" fill="#FFB890"/>
<path d="M313.188 101.29C313.188 101.29 313.119 103.051 312.812 106.048C305.187 107.87 278.481 92.1414 278.481 92.1414C278.481 92.1414 277.399 86.5759 265.572 82.68C253.741 78.7767 252.597 84.9333 240.146 84.7289C227.695 84.5245 228.204 78.3704 225.339 79.8036C222.468 81.2369 221.115 98.0468 221.115 98.0468L214.437 99.6968C215.691 84.2561 220.045 68.5322 250.398 60.7946C257.797 58.9106 264.82 58.2507 271.306 58.7063C283.617 62.1983 294.206 68.0347 301.77 73.0462C308.052 80.1853 312.086 89.7576 313.188 101.29Z" fill="#3B1034"/>
<path d="M215.953 136.602C217.062 136.686 218.267 136.713 219.529 136.668C224.918 136.466 229.245 134.999 229.184 133.378C229.125 131.765 224.709 130.618 219.318 130.812C217.849 130.864 216.462 131.014 215.222 131.238C215.436 132.999 215.672 134.789 215.953 136.602Z" fill="#FF8E69"/>
<path d="M299.884 150.683C292.183 164.865 280.049 177.457 260.976 180.909C238.285 185.01 223.733 170.335 218.437 149.107C217.948 147.184 217.52 145.238 217.133 143.31C216.686 141.061 216.295 138.823 215.953 136.607C215.675 134.789 215.441 132.999 215.227 131.243C214.681 126.67 214.344 122.311 214.157 118.408C215.013 121.533 221.586 145.063 227.445 148.573C227.445 148.573 245.716 134.757 267.083 147.644C267.083 147.644 286.242 154.03 288.914 123.156L301.421 122.102C301.421 122.102 303.032 135.597 299.884 150.683Z" fill="#3B1034"/>
<path d="M270.999 111.363C271.454 111.225 271.877 110.956 272.207 110.565C273.104 109.491 272.962 107.895 271.892 106.996C271.528 106.691 268.205 104.012 263.755 103.953C259.099 103.891 256.233 105.393 255.923 105.566C254.701 106.24 254.256 107.782 254.927 109.006C255.596 110.222 257.121 110.673 258.341 110.013C258.42 109.971 260.422 108.971 263.689 109.016C266.392 109.053 268.623 110.86 268.645 110.877C269.321 111.449 270.209 111.601 270.999 111.363Z" fill="#3B1034"/>
<path d="M235.293 110.739C235.694 110.481 236.026 110.107 236.233 109.639C236.799 108.361 236.223 106.863 234.947 106.297C234.514 106.105 230.581 104.447 226.288 105.62C221.794 106.846 219.458 109.085 219.204 109.336C218.216 110.323 218.211 111.926 219.197 112.916C220.176 113.901 221.767 113.914 222.756 112.941C222.82 112.879 224.468 111.365 227.619 110.506C230.226 109.794 232.871 110.914 232.898 110.927C233.704 111.286 234.6 111.185 235.293 110.739Z" fill="#3B1034"/>
<path d="M312.814 106.048C312.814 106.048 306.577 108.109 303.172 113.635C303.172 113.635 301.787 132.009 293.857 131.031C285.927 130.051 290.78 116.62 287.115 111.458C284.815 108.22 278.828 102.391 278.481 92.1365C278.481 92.1365 303.295 94.4908 312.814 106.048Z" fill="#3B1034"/>
<path d="M221.113 98.0449C221.113 98.0449 221.017 103.519 217.65 108.464C215.909 111.021 214.784 113.946 214.561 117.032L214.288 120.792C214.288 120.792 211.314 105.521 214.438 99.6948L221.113 98.0449Z" fill="#3B1034"/>
<path d="M262.491 149.329C262.491 149.329 244.84 151.1 234.88 149.615C234.88 149.615 234.499 161.736 249.708 160.505C262.287 159.488 262.491 149.329 262.491 149.329Z" fill="white"/>
<path d="M265.335 130.492C265.394 132.108 269.811 133.258 275.203 133.058C280.595 132.859 284.917 131.389 284.855 129.773C284.796 128.158 280.378 127.008 274.987 127.207C269.597 127.404 265.276 128.874 265.335 130.492Z" fill="#FF8E69"/>
<path d="M262.717 119.58C262.823 122.476 264.188 124.777 265.765 124.717C267.341 124.661 268.534 122.265 268.428 119.369C268.323 116.473 266.958 114.172 265.381 114.229C263.802 114.291 262.611 116.684 262.717 119.58Z" fill="#3B1034"/>
<path d="M227.459 122.215C227.565 125.111 228.93 127.411 230.507 127.352C232.083 127.293 233.276 124.899 233.171 122.003C233.065 119.107 231.7 116.807 230.123 116.866C228.546 116.923 227.353 119.319 227.459 122.215Z" fill="#3B1034"/>
<path d="M249.129 140.266C249.86 140.087 250.399 139.424 250.396 138.641C250.394 137.718 249.644 136.974 248.724 136.976C247.204 136.981 245.966 136.9 245.1 136.814C245.482 131.231 247.204 123.562 247.223 123.479C247.425 122.58 246.862 121.686 245.964 121.481C245.064 121.279 244.173 121.843 243.969 122.74C243.883 123.129 241.822 132.307 241.699 138.232C241.681 139.045 242.252 139.754 243.052 139.907C243.14 139.924 245.27 140.326 248.736 140.313C248.871 140.313 249.004 140.296 249.129 140.266Z" fill="#FF8E69"/>
<path d="M303.173 113.638C303.173 113.638 308.291 103.255 318.674 107.087C329.057 110.919 326.973 150.644 301.097 143.241L303.173 113.638Z" fill="#FFB890"/>
<path d="M306.98 135.57C307.743 135.383 308.286 134.674 308.245 133.859C307.598 121.848 316.681 116.167 316.772 116.11C317.557 115.63 317.808 114.603 317.328 113.815C316.849 113.027 315.823 112.778 315.036 113.259C314.591 113.53 304.161 120.056 304.912 134.038C304.961 134.959 305.746 135.664 306.665 135.614C306.776 135.61 306.879 135.595 306.98 135.57Z" fill="#FF8E69"/>
<path d="M315.919 127.093C316.46 126.96 316.923 126.557 317.107 125.985C317.39 125.109 316.91 124.168 316.035 123.885C315.449 123.695 310.227 122.102 306.72 124.36C305.945 124.857 305.721 125.892 306.218 126.667C306.715 127.443 307.745 127.67 308.523 127.17C310.382 125.971 313.919 126.709 315.009 127.064C315.314 127.158 315.629 127.165 315.919 127.093Z" fill="#FF8E69"/>
<path d="M373.769 374.488L367.017 374.081C367.039 373.727 369.111 338.198 365.605 300.611C361.06 251.846 349.401 221.795 331.89 213.705C325.359 210.686 319.377 210.902 313.604 214.362C285.381 231.276 270.241 319.386 266.95 374.485L260.198 374.081C262.082 342.523 267.268 307.162 274.066 279.494C283.499 241.109 295.633 217.241 310.131 208.553C317.857 203.923 326.132 203.588 334.726 207.558C354.844 216.852 367.502 247.975 372.348 300.057C375.892 338.149 373.791 374.128 373.769 374.488Z" fill="#00A580"/>
<path d="M331.336 487.946H304.953C266.251 487.946 234.877 456.535 234.877 417.788V368.331H401.411V417.788C401.411 456.537 370.038 487.946 331.336 487.946Z" fill="#00A580"/>
<path d="M286.835 425.043L281.881 422.216L297.884 421.967L306.156 436.152L301.202 433.475L294.578 445.167C292.955 448.034 292.02 451.253 291.944 454.548C291.941 454.673 291.939 454.799 291.939 454.927L282.921 439.329C282.921 439.329 279.008 432.581 286.835 425.043Z" fill="#008661"/>
<path d="M331.113 463.224L331.019 468.932L323.109 455.003L331.553 440.92L331.59 446.557L345.015 446.751C348.306 446.798 351.573 446.069 354.498 444.552C354.608 444.495 354.719 444.436 354.832 444.375L345.507 459.791C345.507 459.791 341.481 466.47 331.113 463.224Z" fill="#008661"/>
<path d="M342.617 405.881L347.039 403.308L339.215 417.286L322.808 417.323L327.61 414.38L321.116 403.308C321.116 403.308 323.542 397.053 330.244 395.752C337.154 394.413 342.617 405.881 342.617 405.881Z" fill="#008661"/>
<path d="M316.708 446.396V462.985H302.218C302.218 462.985 295.874 462.839 294.861 455.621C294.02 449.625 297.387 446.396 297.387 446.396H316.708Z" fill="#008661"/>
<path d="M335.063 427.604L349.32 419.15L356.704 431.633C356.704 431.633 358.488 437.829 352.683 442.23C347.943 445.823 344.91 444.249 344.91 444.249L335.063 427.604Z" fill="#008661"/>
<path d="M294.02 411.85L301.475 398.781C301.475 398.781 303.854 394.838 307.568 394.838H325.082C325.082 394.838 321.466 397.592 317.823 403.344C314.116 409.2 308.459 419.984 308.459 419.984L294.02 411.85Z" fill="#008661"/>
<path d="M317.825 96.7195C317.825 96.7195 260.545 68.0618 212.743 77.7301C212.743 77.7301 217.994 66.636 227.641 56.2855L227.644 56.2805C229.486 54.3031 231.488 52.3576 233.646 50.5155C242.774 42.7237 254.671 36.8971 268.879 39.3056C288.697 42.6597 301.283 52.6974 308.744 65.2076C310.227 67.6949 311.506 70.2782 312.601 72.9255C315.764 80.5818 317.368 88.7751 317.825 96.7195Z" fill="#FF6129"/>
<path d="M312.6 72.9258C299.271 68.8403 266.119 58.576 227.644 56.2809C229.486 54.3034 231.488 52.3579 233.645 50.5158C250.162 48.2601 285.108 54.5841 308.744 65.2079C310.227 67.6952 311.506 70.2785 312.6 72.9258Z" fill="#00A580"/>
<path d="M292.241 404.355C289.826 407.514 286.628 410.139 282.808 411.912C277.911 414.178 271.69 416.156 264.591 416.394C241.856 417.155 187.033 399.222 166.809 392.305C165.629 391.896 156.52 389.172 155.578 388.434C152.885 386.328 155.822 383.134 155.937 379.566C156.132 373.591 157.863 368.252 163.831 368.331C180.793 368.563 219.738 373.419 237.271 371.21C249.55 369.663 262.432 368.055 273.041 368.629C273.082 368.629 273.119 368.637 273.161 368.637C273.872 368.673 274.585 368.728 275.272 368.782C276.762 368.915 278.204 369.092 279.571 369.324C279.704 369.348 279.832 369.365 279.96 369.39C287.002 370.651 292.391 373.421 294.922 378.627C295.092 378.975 295.252 379.315 295.397 379.657C299.092 388.084 297.515 397.474 292.241 404.355Z" fill="#FFB890"/>
<path d="M181.189 368.932C181.189 368.932 185.263 366.47 187.646 369.548C187.646 369.548 191.311 389.48 182.412 397.489C182.412 397.489 179.832 399.021 177.392 395.851C177.392 395.851 186.657 382.804 181.189 368.932Z" fill="#FF6129"/>
<path d="M129.815 367.524C129.815 367.524 118.692 361.633 114.481 354.009C110.27 346.384 93.9911 335.889 98.5269 331.579C102.354 327.944 122.839 351.755 132.188 356.368C142.047 361.227 129.815 367.524 129.815 367.524Z" fill="#FF8E69"/>
<path d="M138.173 361.352C138.173 361.352 119.497 357.579 113.155 351.095C106.814 344.611 91.244 338.258 91.1456 334.911C91.0472 331.564 102.972 334.968 112.176 341.794C121.381 348.623 138.173 361.352 138.173 361.352Z" fill="#FFB890"/>
<path d="M135.005 357.355C135.005 357.355 121.725 347.249 122.652 344.17C123.58 341.092 134.971 343.289 146.544 354.577C150.1 358.047 157.229 359.833 164.421 365.066C172.922 371.252 171.377 384.24 161.634 388.182C161.6 388.197 161.563 388.212 161.528 388.224C159.93 388.862 158.146 388.85 156.547 388.212C149.156 385.262 122.608 374.2 115.644 364.92C107.53 354.107 88.1519 343.146 86.7991 339.021C85.4438 334.896 98.3943 338.851 106.826 343.17C115.258 347.492 135.005 357.355 135.005 357.355Z" fill="#FFB890"/>
<path d="M354.876 319.27C354.566 319.817 353.661 321.334 352.546 323.178C350.436 326.705 347.595 331.399 346.872 332.64C335.577 352.119 313.092 384.678 295.594 401.35C294.45 402.441 293.331 403.445 292.243 404.352C268.974 423.843 257.965 404.211 270.809 377.516C271.921 375.189 273.205 372.67 274.629 369.983C274.659 369.922 274.696 369.863 274.733 369.794C274.91 369.459 275.092 369.124 275.274 368.777C275.79 367.792 276.339 366.792 276.905 365.77C276.971 365.642 277.037 365.514 277.111 365.385C277.367 364.923 277.623 364.455 277.884 363.984C282.901 354.905 288.977 344.638 295.006 334.743C300.486 325.754 309.535 311.902 315.648 302.487C317.313 299.924 318.762 297.683 319.856 295.971C326.663 300.507 333.99 305.27 340.73 309.848C345.133 312.853 350.448 316.31 354.876 319.27Z" fill="#FFB890"/>
<path d="M286.405 380.901C282.445 375.84 277.946 372.109 274.733 369.799C274.118 369.361 273.548 368.972 273.043 368.629C273.085 368.629 273.122 368.637 273.164 368.637C273.875 368.674 274.588 368.728 275.274 368.782C275.791 367.797 276.34 366.797 276.905 365.775C277.776 366.792 278.686 368.016 279.574 369.326C283.023 374.36 286.252 380.6 286.405 380.901Z" fill="#3B1034"/>
<path d="M351.356 325.166L316.745 300.8C318.408 298.229 318.757 297.69 319.857 295.976C326.66 300.515 333.99 305.277 340.73 309.855C345.138 312.852 350.451 316.315 354.883 319.27C354.569 319.817 352.46 323.321 351.356 325.166Z" fill="#3B1034"/>
<path d="M333.993 215.682C333.993 215.682 358.328 232.945 363.68 256.113C370.348 284.978 363.136 304.482 357.144 324.166L308.811 294.883L333.993 215.682Z" fill="#F6B74C"/>
<path d="M309.866 293.083C309.713 293.083 309.558 293.061 309.403 293.012C308.604 292.756 308.161 291.901 308.417 291.098L321.953 248.532C322.206 247.729 323.062 247.288 323.861 247.542C324.661 247.798 325.104 248.652 324.848 249.455L311.312 292.022C311.11 292.669 310.51 293.083 309.866 293.083Z" fill="#E9981A"/>
<path d="M317.899 267.817C317.173 267.817 316.531 267.294 316.403 266.556L313.395 249.256C313.25 248.428 313.806 247.64 314.632 247.495C315.456 247.352 316.246 247.906 316.391 248.734L319.399 266.034C319.544 266.861 318.989 267.649 318.162 267.794C318.074 267.809 317.985 267.817 317.899 267.817Z" fill="#E9981A"/>
</svg>
