<svg width="81" height="80" viewBox="0 0 81 80" fill="none" xmlns="http://www.w3.org/2000/svg">
<path fill-rule="evenodd" clip-rule="evenodd" d="M10.5 10H62.1667V18.3333H58.8333V13.3333H13.8333V51.6667H49.4783V55H10.5V10ZM60.5 31.6667C61.8261 31.6667 63.0978 31.1399 64.0355 30.2022C64.9732 29.2645 65.5 27.9927 65.5 26.6667C65.5 25.3406 64.9732 24.0688 64.0355 23.1311C63.0978 22.1934 61.8261 21.6667 60.5 21.6667C59.1739 21.6667 57.9021 22.1934 56.9645 23.1311C56.0268 24.0688 55.5 25.3406 55.5 26.6667C55.5 27.9927 56.0268 29.2645 56.9645 30.2022C57.9021 31.1399 59.1739 31.6667 60.5 31.6667ZM63.885 35.0167C66.05 35.0167 67.7633 35.99 68.885 37.4933C69.9333 38.9017 70.3767 40.6433 70.4767 42.2517C70.5746 43.9015 70.3499 45.5546 69.815 47.1183C69.315 48.5683 68.47 50.0683 67.1667 51.0967V67.5C67.1679 68.1281 66.9326 68.7337 66.5076 69.1962C66.0827 69.6588 65.4991 69.9444 64.8732 69.9963C64.2472 70.0482 63.6246 69.8625 63.1293 69.4762C62.634 69.09 62.3022 68.5314 62.2 67.9117L60.05 55H59.5533L57.1233 67.96C57.0079 68.5717 56.6685 69.1183 56.1715 69.493C55.6744 69.8676 55.0554 70.0434 54.4356 69.9859C53.8159 69.9283 53.2398 69.6417 52.8202 69.1819C52.4006 68.7222 52.1675 68.1225 52.1667 67.5V43.7217C51.8334 44.2294 51.5045 44.7399 51.18 45.2533L51.05 45.4583L51.0167 45.5117L51.0083 45.5267C50.7837 45.8873 50.4709 46.1848 50.0993 46.391C49.7278 46.5971 49.3099 46.7052 48.885 46.705H40.5517C39.8886 46.705 39.2527 46.4416 38.7839 45.9728C38.3151 45.5039 38.0517 44.868 38.0517 44.205C38.0517 43.542 38.3151 42.9061 38.7839 42.4372C39.2527 41.9684 39.8886 41.705 40.5517 41.705H47.5133C47.9183 41.0783 48.4517 40.265 49.0117 39.4483C49.595 38.5967 50.2383 37.695 50.8117 36.9883C51.09 36.6433 51.4017 36.2833 51.715 35.9883C51.8683 35.8433 52.0817 35.655 52.3417 35.4883C52.8005 35.1871 53.3362 35.024 53.885 35.0183L63.885 35.0167Z" fill="#222831"/>
</svg>
